<svg width="8" height="15" viewBox="0 0 8 15" fill="none" xmlns="http://www.w3.org/2000/svg">
<path d="M0.99999 14.1555C0.766338 14.156 0.539902 14.0782 0.35999 13.9358C0.258731 13.8555 0.17503 13.757 0.113678 13.6458C0.0523256 13.5347 0.0145293 13.413 0.00245341 13.2879C-0.00962246 13.1627 0.00425956 13.0365 0.043304 12.9165C0.0823485 12.7965 0.145788 12.685 0.22999 12.5884L4.70999 7.46664L0.38999 2.33531C0.306924 2.23757 0.244893 2.1251 0.207461 2.00438C0.170029 1.88366 0.157935 1.75705 0.171875 1.63185C0.185814 1.50664 0.225511 1.3853 0.288684 1.27481C0.351858 1.16431 0.437263 1.06683 0.53999 0.987977C0.643456 0.900987 0.764622 0.835371 0.895884 0.795248C1.02715 0.755125 1.16567 0.741362 1.30276 0.754821C1.43986 0.76828 1.57256 0.808671 1.69254 0.873459C1.81252 0.938247 1.9172 1.02603 1.99999 1.13131L6.82999 6.86464C6.97707 7.03562 7.05748 7.25009 7.05748 7.47142C7.05748 7.69275 6.97707 7.90722 6.82999 8.0782L1.82999 13.8115C1.72967 13.9272 1.60224 14.0186 1.45803 14.0784C1.31382 14.1381 1.1569 14.1646 0.99999 14.1555Z" fill="#0795FD"/>
</svg>
